<svg width="69" height="27" viewBox="0 0 69 27" fill="none" xmlns="http://www.w3.org/2000/svg">
<path d="M63.6223 16.4137V23.3801C63.6223 24.4518 63.9874 24.8537 65.1161 24.9207V26.5954H50.8918C50.6263 26.1265 50.4271 25.4901 50.2279 24.2844L48.7009 16.0119C48.5349 15.1076 48.2029 14.7726 47.4726 14.7726H46.9415V23.3801C46.9415 24.4518 47.3067 24.8537 48.4353 24.9207V26.5954H40.8002V24.9207C41.8957 24.8537 42.2941 24.4518 42.2941 23.3801V14.0522L50.2386 13.6448C51.8189 13.9314 52.9079 14.8631 53.3152 16.3802L55.1409 23.3466C55.3733 24.3513 55.9044 24.8202 56.7343 24.9207H57.481C58.6097 24.8537 58.9748 24.4518 58.9748 23.3801V16.4137L58.0277 13.2455L64.6711 12.9049L63.6223 16.4137Z" fill="white"/>
<path d="M69 2.14608C68.1701 2.31354 67.7385 2.615 67.4066 3.75371L64.8715 12.2345H62.8587L64.9169 4.69155C65.3817 2.98347 64.8505 2.28006 63.7551 2.14608V0.471507H69V2.14608Z" fill="white"/>
<path d="M61.6969 2.14608C60.5682 2.24656 60.0703 2.98345 60.535 4.69155L62.4722 12.2345H57.7255L55.1905 3.75371C54.8585 2.615 54.4269 2.31354 53.597 2.14608V0.471507H61.6969V2.14608Z" fill="white"/>
<path d="M47.8247 0.471507C52.2065 0.47152 54.1973 3.15088 54.1973 7.30388C54.1973 9.41905 53.48 11.0848 52.2521 12.2345H48.6245C49.2796 11.3805 49.6057 9.66331 49.6057 7.12198C49.6057 3.60534 49.086 2.38054 47.4262 2.38054H46.9415V12.2345H42.2941V3.68675C42.2941 2.61501 41.8957 2.21307 40.8002 2.14608V0.471507H47.8247Z" fill="white"/>
<path d="M41.6009 14.0877C41.4291 22.7984 37.4254 27 32.5115 27C31.2606 27 30.0687 26.7277 28.984 26.1781L32.6667 18.1763C33.7437 15.8363 36.0302 14.3022 38.5868 14.204L41.5743 14.0891L41.6009 14.0877Z" fill="white"/>
<path d="M10.708 14.3639C11.9057 16.0792 12.3157 17.6589 12.3157 19.866C12.3157 23.8516 9.36127 26.9998 5.51053 26.9998C3.2532 26.9998 1.46062 26.33 0 25.0573V18.0909H1.89216C2.3901 22.7798 3.45241 24.9903 5.34459 24.9903C6.8052 24.9903 7.76788 23.3827 7.76788 21.2392C7.76788 19.0957 6.87157 17.421 4.44826 15.0766L3.74187 14.3639H10.708Z" fill="white"/>
<path d="M20.087 14.3639V23.3494C20.087 24.4212 20.4854 24.823 21.5808 24.89V26.5647H13.9458V24.89C15.0744 24.823 15.4396 24.4212 15.4396 23.3494V14.3639H20.087Z" fill="white"/>
<path d="M25.0205 14.3639C27.1586 14.3639 27.6969 14.4973 27.9034 14.7073C28.0806 14.8875 27.9744 15.1909 27.8406 15.3932C27.4395 15.9999 26.6597 16.6639 25.8606 17.1513C25.8293 17.1705 25.8449 17.2192 25.8808 17.2117C26.3661 17.1109 27.7721 16.8086 29.2992 16.3966C30.7492 16.0054 30.0247 17.6402 29.0609 20.9719C28.7799 21.9435 28.2958 23.5739 27.7513 25.3962C25.2785 23.4788 23.5892 19.8276 23.4288 14.3639H25.0205Z" fill="white"/>
<path d="M32.5115 0C33.7908 0 35.0084 0.284944 36.1128 0.859949L33.059 8.04458C33.059 8.04458 32.8598 8.55162 32.5879 9.14019C32.316 9.72876 31.7067 9.53272 31.3342 9.30874C30.3814 8.73569 30.1111 8.43546 29.2992 7.49509C28.7154 6.81896 28.1868 6.32727 27.6568 5.6013C27.627 5.56044 27.562 5.60052 27.5844 5.64585C27.9785 6.43591 28.2077 7.05355 28.5628 7.90723C29.1515 9.32214 29.5827 10.2907 29.5289 11.247C29.5138 11.5166 29.3055 11.8578 29.1445 11.9885C28.8487 12.2288 28.6309 12.3782 27.8625 12.402L23.4293 12.6155C23.4785 10.9801 23.6648 9.50727 23.9682 8.19503C22.9865 3.30605 22.4345 2.34987 20.087 2.34987V12.7765L15.4396 13.0005V2.34987C13.1952 2.34987 12.5348 3.31495 11.5444 8.2637H10.0468L10.0484 8.24423H9.38819C8.98984 4.05777 8.29902 2.01479 6.53967 2.01476C5.37781 2.01476 4.44827 3.3209 4.44826 5.02898C4.44826 7.10549 5.14541 8.54566 7.03758 10.3877L8.06663 11.3925C8.76287 12.0666 9.35468 12.6837 9.85528 13.2696L2.97758 13.601C0.878184 11.4679 0.0332227 9.74513 0.0332227 6.67012C0.033224 2.91901 2.75527 0.00517389 6.37364 0.00517004C8.13969 0.00517004 9.43101 0.72142 10.5401 2.28645L10.6925 0.440832H24.834L25.1916 4.77298C26.8481 1.5677 29.5099 0 32.5115 0Z" fill="white"/>
<path d="M37.6222 1.8918C39.8439 3.82431 41.3611 7.25099 41.5795 12.2345H37.1591C37.0355 12.2345 36.9758 12.0816 37.0655 11.9958C38.0635 11.041 38.8853 10.1691 39.1946 9.83582C39.2225 9.80565 39.1864 9.76211 39.1496 9.78033C38.1228 10.2895 37.1146 10.5877 36.0314 10.6402C35.6302 10.6596 35.4977 10.3751 35.5622 10.1173L37.6222 1.8918Z" fill="white"/>
</svg>
